# xmcd
#
# Track frame offsets: 
#        150
#        18655
#        38175
#        59200
#        77930
#        99842
#        123282
#        140005
#        158005
#        171052
#        180170
#        195345
#        213300
#        228420
#
# Disc length: 3336 seconds
#
# Revision: 5
# Processed by: cddbd v1.4PL0 Copyright (c) Steve Scherf et al.
# Submitted via: ExactAudioCopy v0.90b4
#
DISCID=b50d060e
DTITLE=Anders Osborne - Living Room
DYEAR=1999
DGENRE=Blues
TTITLE0=Boxes, Bills and Pain
TTITLE1=Greasy Money
TTITLE2=Had My Reasons
TTITLE3=Coast to Coast Blues
TTITLE4=Trippin' in Montana
TTITLE5=Ya Ya
TTITLE6=Never Is a Real Long Time
TTITLE7=Two Times
TTITLE8=Love Don't Care
TTITLE9=Home Coming
TTITLE10=Jetstream
TTITLE11=Takes Two
TTITLE12=Highway
TTITLE13=That's All
EXTD=YEAR: 1999 ID3G: 0
EXTT0=
EXTT1=
EXTT2=
EXTT3=
EXTT4=
EXTT5=
EXTT6=
EXTT7=
EXTT8=
EXTT9=
EXTT10=
EXTT11=
EXTT12=
EXTT13=
PLAYORDER=
